<?xml version="1.0" encoding="UTF-8"?>
<svg width="196px" height="44px" viewBox="0 0 196 44" version="1.1" xmlns="http://www.w3.org/2000/svg" xmlns:xlink="http://www.w3.org/1999/xlink">
    <title>LOGO</title>
    <defs>
        <polygon id="path-1" points="0 0.650159656 14.7660999 0.650159656 14.7660999 42.4850193 0 42.4850193"></polygon>
        <polygon id="path-3" points="0.295519133 0.646967824 11.403037 0.646967824 11.403037 11.5033165 0.295519133 11.5033165"></polygon>
    </defs>
    <g id="页面-1" stroke="none" stroke-width="1" fill="none" fill-rule="evenodd">
        <g id="建木-访问版本界面" transform="translate(-92.000000, -59.000000)">
            <g id="编组备份" transform="translate(92.000000, 60.000000)">
                <g id="编组" transform="translate(14.337349, 0.000000)">
                    <mask id="mask-2" fill="white">
                        <use xlink:href="#path-1"></use>
                    </mask>
                    <g id="Clip-2"></g>
                    <path d="M7.26935556,4.46588122 C7.26935556,2.35090403 8.99543715,0.650159656 11.0403616,0.650159656 C13.1305539,0.650159656 14.7660999,2.35090403 14.7660999,4.46588122 C14.7660999,6.53438999 13.1305539,8.23579819 11.0403616,8.23579819 C8.99543715,8.23579819 7.26935556,6.53438999 7.26935556,4.46588122 M14.7660999,13.8445371 L14.7660999,31.084323 C14.7660999,37.3369816 9.85946203,42.4398785 3.68007681,42.4850193 C1.63580838,42.4398785 -0.000393633207,40.7842749 -0.000393633207,38.7157661 C-0.000393633207,36.6007889 1.6810762,34.9000446 3.77061244,34.9000446 L3.58954117,34.9000446 C5.6338096,34.9000446 7.26935556,33.2451048 7.26935556,31.084323 L7.26935556,13.8445371 C7.26935556,11.72956 8.99543715,10.0288156 11.0403616,10.0288156 C13.1305539,10.0288156 14.7660999,11.72956 14.7660999,13.8445371" id="Fill-1" fill="#082340" mask="url(#mask-2)"></path>
                </g>
                <path d="M41.3253012,13.9044554 L41.3253012,29.2932925 C41.3253012,31.3601725 39.6961505,33.060241 37.6141311,33.060241 C35.5327652,33.060241 33.9036145,31.3601725 33.9036145,29.2932925 L33.9036145,13.9044554 C33.9036145,11.8375754 35.5327652,10.1375069 37.6141311,10.1375069 C39.6961505,10.1375069 41.3253012,11.8375754 41.3253012,13.9044554 M33.9036145,4.48741583 C33.9036145,2.3747673 35.5327652,0.674698795 37.6141311,0.674698795 C39.6961505,0.674698795 41.3253012,2.3747673 41.3253012,4.48741583 C41.3253012,6.55429583 39.6961505,8.25436434 37.6141311,8.25436434 C35.5327652,8.25436434 33.9036145,6.55429583 33.9036145,4.48741583" id="Fill-3" fill="#082340"></path>
                <path d="M57.2042046,25.1262414 C55.2147231,25.1262414 53.5471796,23.6531935 53.2851371,21.7696018 C53.2647182,21.601838 53.2449799,21.4333922 53.2449799,21.253353 C53.2449799,21.0726319 53.2647182,20.9048681 53.2851371,20.7364223 C53.5471796,18.8528306 55.2147231,17.3797827 57.2042046,17.3797827 C59.3250477,17.3797827 61.0695024,19.1276631 61.0695024,21.2526711 L61.1164659,21.2526711 L61.1164659,21.253353 L61.0695024,21.253353 C61.0695024,23.378361 59.3250477,25.1262414 57.2042046,25.1262414 L57.2042046,25.1262414 Z M68.9872712,21.253353 L68.9879518,21.2526711 L68.9865905,21.2526711 C68.9825068,21.2526711 68.941669,21.2513071 68.941669,21.2056154 L68.941669,13.3657272 L68.941669,13.3657272 C68.941669,11.1929816 67.1502508,9.44578313 65.0287271,9.44578313 C64.1520757,9.44578313 63.3897701,9.70424848 62.7608679,10.1713956 C62.5723334,10.305743 62.3953696,10.4544117 62.2340603,10.6194477 C60.347354,9.49283883 57.2042046,9.44578313 57.2042046,9.44578313 C55.0717908,9.44578313 53.075503,10.0090876 51.350106,10.9897555 C51.2589016,11.0245358 51.1670165,11.0579522 51.0764927,11.0988702 L50.2753912,11.6185288 C47.6107248,13.5253074 45.7859558,16.5743801 45.4381538,20.0128558 C45.4347507,20.0476361 45.4320282,20.0824164 45.428625,20.1178786 C45.4136511,20.2795047 45.4000385,20.4411308 45.391871,20.6048028 C45.3843841,20.7316486 45.3823422,20.8598583 45.3796196,20.988068 C45.3782584,21.0610384 45.373494,21.1326449 45.373494,21.2056154 L45.373494,21.2526711 L45.373494,21.253353 L45.373494,21.3004087 C45.373494,21.3733792 45.3782584,21.4456676 45.3796196,21.5179561 C45.3823422,21.6461658 45.3843841,21.7743755 45.391871,21.9012213 C45.4000385,22.0648933 45.4136511,22.2272014 45.428625,22.3888274 C45.4320282,22.4236077 45.4347507,22.458388 45.4381538,22.4931683 C45.7859558,25.931644 47.6107248,28.9807167 50.2753912,30.8874953 L51.0764927,31.4071539 C51.1670165,31.4480719 51.2589016,31.4814883 51.350106,31.5162686 C53.075503,32.4969365 55.0717908,33.060241 57.2042046,33.060241 C57.2042046,33.060241 60.347354,33.0131853 62.2340603,31.8865764 C62.3953696,32.0516123 62.5723334,32.200963 62.7608679,32.3346285 C63.3897701,32.8017756 64.1520757,33.060241 65.0287271,33.060241 C67.1502508,33.060241 68.941669,31.3130425 68.941669,29.1402969 L68.941669,29.1402969 L68.941669,21.3004087 C68.941669,21.254717 68.9825068,21.253353 68.9865905,21.253353 L68.9879518,21.253353 L68.9872712,21.253353 Z" id="Fill-5" fill="#082340"></path>
                <path d="M95.9759036,21.253012 L95.9759036,29.1401837 C95.9759036,31.312992 94.2280232,33.060241 92.0552776,33.060241 C89.8832139,33.060241 88.1353335,31.312992 88.1353335,29.1401837 L88.1353335,21.253012 C88.1353335,19.0802037 86.3410793,17.3329548 84.1683337,17.3329548 C81.9955881,17.3329548 80.2483896,19.0802037 80.2483896,21.253012 L80.2483896,29.1401837 C80.2483896,31.312992 78.5011912,33.060241 76.3284456,33.060241 C74.1556999,33.060241 72.3614458,31.312992 72.3614458,29.1401837 L72.3614458,21.253012 C72.3614458,14.7352689 77.6507788,9.44578313 84.1683337,9.44578313 C90.6858886,9.44578313 95.9759036,14.7352689 95.9759036,21.253012" id="Fill-7" fill="#082340"></path>
                <path d="M139.831325,21.3000691 L139.831325,29.1872407 C139.831325,31.312992 138.081579,33.060241 135.962731,33.060241 C133.843882,33.060241 132.140025,31.312992 132.140025,29.1872407 L132.140025,21.3000691 C132.140025,19.1272607 130.389614,17.3329548 128.270766,17.3329548 C126.152582,17.3329548 124.402171,19.1272607 124.402171,21.3000691 L124.402171,29.1872407 C124.402171,31.312992 122.697649,33.060241 120.579465,33.060241 C118.460617,33.060241 116.710871,31.312992 116.710871,29.1872407 L116.710871,21.3000691 C116.710871,19.1272607 115.052902,17.3329548 112.934054,17.3329548 C110.815205,17.3329548 109.064794,19.1272607 109.064794,21.3000691 L109.064794,29.1872407 C109.064794,31.312992 107.360937,33.060241 105.242753,33.060241 C103.123905,33.060241 101.373494,31.312992 101.373494,29.1872407 L101.373494,21.3000691 C101.373494,14.7352689 106.578173,9.44578313 112.934054,9.44578313 C115.881554,9.44578313 118.553059,10.5792444 120.579465,12.4683464 C122.605872,10.5792444 125.323265,9.44578313 128.270766,9.44578313 C134.626646,9.44578313 139.831325,14.782326 139.831325,21.3000691" id="Fill-9" fill="#096DD9"></path>
                <path d="M143.204819,21.253012 L143.204819,13.3658404 C143.204819,11.193032 144.952018,9.44578313 147.124763,9.44578313 C149.297509,9.44578313 151.044707,11.193032 151.044707,13.3658404 L151.044707,21.253012 C151.044707,23.4258204 152.838962,25.1730693 155.011707,25.1730693 C157.184453,25.1730693 158.932333,23.4258204 158.932333,21.253012 L158.932333,13.3658404 C158.932333,11.193032 160.679532,9.44578313 162.852277,9.44578313 C165.024341,9.44578313 166.819277,11.193032 166.819277,13.3658404 L166.819277,21.253012 C166.819277,27.7714372 161.529944,33.060241 155.011707,33.060241 C148.494152,33.060241 143.204819,27.7714372 143.204819,21.253012" id="Fill-11" fill="#096DD9"></path>
                <g id="编组" transform="translate(170.192771, 0.000000)">
                    <mask id="mask-4" fill="white">
                        <use xlink:href="#path-3"></use>
                    </mask>
                    <g id="Clip-14"></g>
                    <path d="M5.84900768,0.646967824 C2.78161101,0.646967824 0.295519133,3.07681328 0.295519133,6.07481183 C0.295519133,9.07281039 2.78161101,11.5033165 5.84900768,11.5033165 C8.91640435,11.5033165 11.4031722,9.07281039 11.4031722,6.07481183 C11.4031722,3.07681328 8.91640435,0.646967824 5.84900768,0.646967824 L5.84900768,0.646967824 Z M5.84900768,10.7277214 C3.22029335,10.7277214 1.08906776,8.64471364 1.08906776,6.07481183 C1.08906776,3.50557068 3.22029335,1.42190222 5.84900768,1.42190222 C8.47839795,1.42190222 10.6096235,3.50557068 10.6096235,6.07481183 C10.6096235,8.64471364 8.47839795,10.7277214 5.84900768,10.7277214 L5.84900768,10.7277214 Z M8.21681079,8.55883003 L6.84128144,6.75857748 L6.85547609,6.75725619 C7.6524044,6.50555116 8.22897764,5.77487985 8.22897764,4.91207991 C8.22897764,3.84117739 7.34147393,2.97309231 6.245782,2.97309231 L4.65936067,2.97309231 C4.44035747,2.97309231 4.26258635,3.14684145 4.26258635,3.36088983 L4.26258635,8.78873384 C4.26258635,9.00278222 4.44035747,9.17653136 4.65936067,9.17653136 C4.87768793,9.17653136 5.05545905,9.00278222 5.05545905,8.78873384 L5.05545905,6.85040688 L5.9098419,6.85040688 L7.58210708,9.0239228 C7.71391456,9.19502937 7.961983,9.23004346 8.13772631,9.10187869 C8.31279368,8.97305328 8.34861828,8.7299366 8.21681079,8.55883003 L8.21681079,8.55883003 Z M5.05545905,6.07481183 L5.05545905,3.74868735 L6.245782,3.74868735 C6.90346753,3.74868735 7.43610494,4.26927414 7.43610494,4.91207991 C7.43610494,5.55422504 6.90346753,6.07481183 6.245782,6.07481183 L5.05545905,6.07481183 Z" id="Fill-13" fill="#096DD9" mask="url(#mask-4)"></path>
                </g>
            </g>
        </g>
    </g>
</svg>