<svg id="图层_1" data-name="图层 1" xmlns="http://www.w3.org/2000/svg" viewBox="0 0 731.34 190.82"><defs><style>.cls-1{fill:#012c53;}.cls-2{fill:#096dd9;}.cls-3{opacity:0.3;}</style></defs><path class="cls-1" d="M45.63,79.51v50.78a33.39,33.39,0,0,1-33.05,33.59,11.18,11.18,0,0,1,.27-22.35h-.54a11,11,0,0,0,11-11.24V79.51A11.3,11.3,0,0,1,34.52,68.26,11.1,11.1,0,0,1,45.63,79.51ZM23.28,51.88A11.3,11.3,0,0,1,34.52,40.64a11.17,11.17,0,0,1,0,22.34A11.27,11.27,0,0,1,23.28,51.88Z"/><path class="cls-1" d="M59.17,52.56a11.11,11.11,0,1,1,11.11,11.1A11.11,11.11,0,0,1,59.17,52.56Z"/><path class="cls-1" d="M81.38,79.64V125a11.11,11.11,0,0,1-22.21,0V79.64a11.11,11.11,0,1,1,22.21,0Z"/><path class="cls-1" d="M162.77,102.37h0a.13.13,0,0,1-.13-.14V79.75h0A11.3,11.3,0,0,0,151.4,68.51a10.73,10.73,0,0,0-6.52,2.08,10.94,10.94,0,0,0-1.51,1.29c-5.42-3.23-14.45-3.37-14.45-3.37a34,34,0,0,0-16.82,4.43l-.79.31L109,74.74a33.83,33.83,0,0,0-13.9,24.07l0,.3c0,.47-.08.93-.1,1.4s0,.73,0,1.1c0,.21,0,.41,0,.62v.14h0v.13c0,.21,0,.42,0,.63,0,.37,0,.74,0,1.1s.06.93.1,1.4l0,.3A33.83,33.83,0,0,0,109,130l2.3,1.49.79.31a34,34,0,0,0,16.82,4.43s9-.14,14.45-3.37a10.94,10.94,0,0,0,1.51,1.29,10.73,10.73,0,0,0,6.52,2.08A11.3,11.3,0,0,0,162.64,125h0V102.5a.13.13,0,0,1,.13-.13Zm-33.85,11.11a11.35,11.35,0,0,1-11.26-9.63,9.19,9.19,0,0,1,0-3,11.35,11.35,0,0,1,11.26-9.63A11.16,11.16,0,0,1,140,102.37h0A11.16,11.16,0,0,1,128.92,113.48Z"/><path class="cls-1" d="M244,102.26v22.61a11.25,11.25,0,0,1-22.49,0V102.26a11.31,11.31,0,0,0-22.61,0v22.61a11.21,11.21,0,0,1-11.24,11.24,11.33,11.33,0,0,1-11.38-11.24V102.26a33.86,33.86,0,1,1,67.72,0Z"/><path class="cls-2" d="M370.66,102.39V125a11.3,11.3,0,0,1-11.37,11.1A11.18,11.18,0,0,1,348.05,125V102.39a11.38,11.38,0,0,0-22.76,0V125a11.18,11.18,0,0,1-11.24,11.1A11.3,11.3,0,0,1,302.68,125V102.39A11.21,11.21,0,0,0,291.57,91a11.43,11.43,0,0,0-11.37,11.37V125A11.18,11.18,0,0,1,269,136.11,11.3,11.3,0,0,1,257.58,125V102.39a34,34,0,0,1,34-34,33.2,33.2,0,0,1,22.48,8.67,33.56,33.56,0,0,1,22.62-8.67A34.1,34.1,0,0,1,370.66,102.39Z"/><path class="cls-2" d="M384.21,102.26V79.64a11.24,11.24,0,1,1,22.48,0v22.62a11.33,11.33,0,0,0,11.38,11.24,11.21,11.21,0,0,0,11.24-11.24V79.64A11.21,11.21,0,0,1,440.55,68.4a11.33,11.33,0,0,1,11.38,11.24v22.62a33.86,33.86,0,0,1-67.72,0Z"/><path class="cls-2" d="M463.63,68.4h9.94v1.21h-4.28V80.54h-1.38V69.61h-4.28Z"/><path class="cls-2" d="M475.08,68.4h1.74l4.52,10.35h.05l4.5-10.35h1.74V80.54h-1.4V70.88h-.05L482,80.54h-1.25l-4.2-9.66h0v9.66h-1.4Z"/><g class="cls-3"><path class="cls-2" d="M506.08,110.63a1.48,1.48,0,0,1,0-.21A24,24,0,0,1,515.34,93l1.6-1.11c.18-.09.36-.16.55-.24a24.09,24.09,0,0,1,11.81-3.55,28.36,28.36,0,0,1,8.52,1.25V77.12a8,8,0,0,1,15.92,0v35.46a29.84,29.84,0,0,1-.76,6,24,24,0,0,1-11.7,14.92l-.16-.14c-3.77,2.42-10.16,2.74-10.16,2.74a24,24,0,0,1-12-2.73c-.18-.06-.37-.12-.56-.2l-1.67-1a24,24,0,0,1-10.44-16.71,1.49,1.49,0,0,1,0-.21c0-.13,0-.26-.05-.39s-.05-.4-.06-.6,0-.52-.05-.78,0-.29,0-.44V113h0v-.09c0-.15,0-.3,0-.44s0-.53,0-.78S506.06,111,506.08,110.63Zm23.83,9.86a7.61,7.61,0,0,0,5-1.81,9,9,0,0,0,3.13-6.84h0a7.56,7.56,0,0,0-.18-1.35,7.91,7.91,0,0,0-8-6.25,8.23,8.23,0,0,0-3.32.84,8.06,8.06,0,0,0-3.92,4.25,7.22,7.22,0,0,0-.71,3.25A8,8,0,0,0,529.91,120.49Z"/><path class="cls-2" d="M587.2,136.2a23.82,23.82,0,1,1,23.92-23.82A23.89,23.89,0,0,1,587.2,136.2Zm8.39-23.82a8.3,8.3,0,0,0-8.39-8.2,8.2,8.2,0,0,0,0,16.39A8.3,8.3,0,0,0,595.59,112.38Z"/><path class="cls-2" d="M644.46,88.56h15.91a7.88,7.88,0,0,1,7.91,7.91,8,8,0,0,1-7.91,8H644.46a7.91,7.91,0,1,0,0,15.81h15.91a8,8,0,0,1,0,15.92H644.46a23.82,23.82,0,0,1,0-47.64Z"/><path class="cls-2" d="M725.25,117a21.44,21.44,0,0,0-2.29-2.39A27.94,27.94,0,0,0,707.69,108l-.86-.1h-3.67v-.06a11.38,11.38,0,0,1-4.66-.94c-1.86-.84-3.08-2.17-3.08-3.65a3,3,0,0,1,.39-1.45c1-1.88,3.93-3.26,7.35-3.26a11.75,11.75,0,0,1,4.81,1c.66.28,2.45,1.63,3.11,2a11.74,11.74,0,0,0,8.58.73c4.06-1.12,5.57-3.92,3.78-6.28l-1-1c-3.41-2.83-8.64-4.87-14.63-5.56a39.2,39.2,0,0,0-4.52-.27h-.09c-13,0-22.18.74-23.59,14.07a11.2,11.2,0,0,0,.87,3.73,21.43,21.43,0,0,0,3.18,3.83,24.63,24.63,0,0,0,14,6.49,28.26,28.26,0,0,0,3.22.2h4.22c3.24.48,5.68,2.19,5.84,4.23,0,.07,0,.14,0,.22,0,2.57-3.49,4.7-7.74,4.7a11.59,11.59,0,0,1-4.81-1c-.66-.28-2.45-1.63-3.11-2a11.74,11.74,0,0,0-8.58-.73c-4.06,1.12-5.57,3.93-3.78,6.28l1,.95.43.34c4.28,3.33,11.14,5.49,18.72,5.49h.09c13,0,22.26-4,23.58-14.06A10.68,10.68,0,0,0,725.25,117Z"/></g></svg>